<svg xmlns="http://www.w3.org/2000/svg" viewBox="0 0 128 128">
  <circle cx="64" cy="64" r="58" fill="#f7931a"/>
  <path fill="#fff" d="M82.1 54.4c1.3-8.6-5.3-13.2-14.3-16.3l2.9-11.7-7.2-1.8-2.8 11.4-5.8-1.4 2.9-11.5-7.2-1.8-2.9 11.7-11.6-2.9-1.9 7.7s5.3 1.2 5.2 1.3c2.9.7 3.4 2.6 3.3 4.1l-3.3 13.4.7.2-.7-.2-4.7 18.8c-.4.9-1.3 2.3-3.3 1.8.1.1-5.2-1.3-5.2-1.3l-3.6 8.2 10.9 2.7 5.9 1.5-3 11.9 7.2 1.8 2.9-11.8 5.8 1.5-2.9 11.7 7.2 1.8 3-11.9c12.3 2.3 21.5 1.4 25.4-9.7 3.1-8.9-.2-14-6.6-17.3 4.7-1.1 8.2-4.2 9.1-10.7Zm-16.3 23.4c-2.2 8.9-17.3 4.1-22.2 2.9l3.9-15.8c4.9 1.2 20.6 3.7 18.3 12.9Zm2.3-23.5c-2 8.1-14.6 4-18.7 3l3.6-14.3c4.1 1 17.3 2.9 15.1 11.3Z"/>
</svg>
