<svg xmlns="http://www.w3.org/2000/svg" viewBox="0 0 128 128">
  <defs>
    <linearGradient id="solana-a" x1="18" x2="110" y1="92" y2="36" gradientUnits="userSpaceOnUse">
      <stop stop-color="#14f195"/>
      <stop offset=".5" stop-color="#80ecff"/>
      <stop offset="1" stop-color="#9945ff"/>
    </linearGradient>
  </defs>
  <circle cx="64" cy="64" r="58" fill="#101018"/>
  <path fill="url(#solana-a)" d="M37.4 34.5c1.2-1.3 2.9-2.1 4.7-2.1h59.6c2.8 0 4.2 3.4 2.2 5.4L90.6 51.1c-1.2 1.3-2.9 2.1-4.7 2.1H26.3c-2.8 0-4.2-3.4-2.2-5.4l13.3-13.3Zm0 40.2c1.2-1.3 2.9-2.1 4.7-2.1h59.6c2.8 0 4.2 3.4 2.2 5.4L90.6 91.3c-1.2 1.3-2.9 2.1-4.7 2.1H26.3c-2.8 0-4.2-3.4-2.2-5.4l13.3-13.3Zm48.5-22.1c1.8 0 3.5.8 4.7 2.1L103.9 68c2 2 .6 5.4-2.2 5.4H42.1c-1.8 0-3.5-.8-4.7-2.1L24.1 58c-2-2-.6-5.4 2.2-5.4h59.6Z"/>
</svg>
